// src/assets/facebook.svg

<svg
  xmlns="http://www.w3.org/2000/svg"
  viewBox="0 0 24 24"
  width="24"
  height="24"
>
  <path
    d="M22.675 0h-21.35C.595 0 0 .595 0 1.325v21.351C0 23.405.595 24 1.325 24H12.82v-9.294H9.692v-3.622h3.128V8.413c0-3.1 1.893-4.787 4.657-4.787 1.325 0 2.463.099 2.795.143v3.24H18.3c-1.419 0-1.695.676-1.695 1.666v2.184h3.391l-.441 3.622h-2.95V24h5.787C23.405 24 24 23.405 24 22.675V1.325C24 .595 23.405 0 22.675 0z"
    fill="#1877f2"
  />
  <path
    d="M16.67 24v-9.294h3.391l.441-3.622h-3.831V8.662c0-.99.276-1.666 1.695-1.666h1.835v-3.24c-.332-.044-1.47-.143-2.795-.143-2.764 0-4.657 1.687-4.657 4.787v2.738h-3.128v3.622h3.128V24h3.828z"
    fill="#fff"
  />
</svg>
