// src/assets/instagram.svg

<svg
  xmlns="http://www.w3.org/2000/svg"
  viewBox="0 0 24 24"
  width="24"
  height="24"
>
  <path
    d="M12 2.163c3.204 0 3.584 0 4.85.07 1.366.07 2.633.313 3.608 1.288.975.975 1.218 2.242 1.288 3.608.07 1.266.07 1.646.07 4.851s0 3.584-.07 4.85c-.07 1.366-.313 2.633-1.288 3.608-.975.975-2.242 1.218-3.608 1.288-1.266.07-1.646.07-4.851.07s-3.584 0-4.85-.07c-1.366-.07-2.633-.313-3.608-1.288-.975-.975-1.218-2.242-1.288-3.608-.07-1.266-.07-1.646-.07-4.851s0-3.584.07-4.85c.07-1.366.313-2.633 1.288-3.608.975-.975 2.242-1.218 3.608-1.288 1.266-.07 1.646-.07 4.85-.07zm0-2.163c-3.259 0-3.67 0-4.947.072-1.278.073-2.566.313-3.51 1.258-.945.945-1.185 2.233-1.258 3.51-.072 1.277-.072 1.688-.072 4.947s0 3.67.072 4.947c.073 1.277.313 2.566 1.258 3.51.945.945 2.233 1.185 3.51 1.258 1.277.072 1.688.072 4.947.072s3.67 0 4.947-.072c1.277-.073 2.566-.313 3.51-1.258.945-.945 1.185-2.233 1.258-3.51.072-1.277.072-1.688.072-4.947s0-3.67-.072-4.947c-.073-1.277-.313-2.566-1.258-3.51-.945-.945-2.233-1.185-3.51-1.258-1.277-.072-1.688-.072-4.947-.072zM12 5.838c-3.403 0-6.162 2.76-6.162 6.162 0 3.403 2.759 6.162 6.162 6.162 3.403 0 6.162-2.759 6.162-6.162 0-3.403-2.759-6.162-6.162-6.162zm0 10.162c-2.207 0-4-1.794-4-4s1.793-4 4-4 4 1.793 4 4c0 2.207-1.793 4-4 4zm6.406-11.845c-.796 0-1.441.646-1.441 1.442 0 .795.646 1.441 1.441 1.441s1.441-.646 1.441-1.441c0-.796-.646-1.442-1.441-1.442z"
    fill="#E1306C"
  />
</svg>
