// src/assets/twitter.svg

<svg
  xmlns="http://www.w3.org/2000/svg"
  viewBox="0 0 24 24"
  width="24"
  height="24"
>
  <path
    d="M23.954 4.569c-.885.385-1.83.647-2.825.764 1.014-.607 1.794-1.569 2.163-2.724-.95.565-2.005.974-3.127 1.197-.897-.959-2.178-1.559-3.594-1.559-2.713 0-4.917 2.204-4.917 4.917 0 .39.045.765.127 1.124-4.083-.205-7.699-2.158-10.124-5.127-.422.724-.666 1.562-.666 2.457 0 1.697.86 3.194 2.168 4.072-.8-.025-1.556-.246-2.217-.612v.061c0 2.368 1.681 4.342 3.91 4.788-.41.111-.843.171-1.289.171-.315 0-.621-.031-.925-.089.622 1.945 2.426 3.362 4.564 3.397-1.671 1.309-3.786 2.091-6.075 2.091-.394 0-.783-.023-1.17-.069 2.165 1.39 4.74 2.204 7.51 2.204 9.012 0 13.93-7.474 13.93-13.93 0-.212-.005-.424-.015-.633.958-.693 1.793-1.56 2.45-2.548z"
    fill="#1DA1F2"
  />
</svg>
